<svg xmlns="http://www.w3.org/2000/svg" viewBox="0 0 48.6 12.7"><style>.A{fill:#4e4e4e}</style><path class="A" d="M18.1 3c0-.1 0-.1.1-.1 0 0 .1-.1.2-.1h1.4c.1 0 .1 0 .1.1 0 0 .1.1.1.2v5.1h2.6c.1 0 .1 0 .1.1 0 0 .1.1.1.2v1.2c0 .1 0 .1-.1.1 0 0-.1.1-.2.1h-4.2c-.1 0-.2-.1-.2-.2V3zm5.2 3.3c0-.3 0-.7.1-1s.2-.6.4-.9l.6-.6c.2-.2.5-.4.7-.6.3-.2.6-.3.9-.4s.6-.1 1-.1c.3 0 .7 0 1 .1s.6.2.9.4.5.3.7.6c.2.2.4.5.6.7.2.3.3.6.4.9s.1.6.1 1 0 .7-.1 1-.2.6-.4.9-.3.5-.6.7c-.2.2-.5.4-.7.6-.3.2-.6.3-.9.4s-.6.1-1 .1c-.3 0-.7 0-1-.1s-.6-.2-.9-.4-.5-.3-.7-.6c-.2-.2-.4-.5-.6-.7-.2-.3-.3-.6-.4-.9 0-.4-.1-.7-.1-1.1zm1.9 0c0 .3 0 .5.1.7s.2.4.4.6c.1.2.3.4.5.5s.5.1.7.1c.3 0 .5 0 .7-.1s.4-.2.6-.4.3-.4.4-.6.1-.5.1-.7c0-.3 0-.5-.1-.7s-.2-.4-.4-.6-.3-.3-.6-.4c-.2-.1-.5-.1-.7-.1-.3 0-.5 0-.7.1a.55.55 0 0 0-.5.3c-.2.2-.3.4-.4.6s-.1.5-.1.7zM31.7 3c0-.1 0-.1.1-.2 0 0 .1-.1.2-.1h3c.3 0 .6.1.9.2s.5.3.7.5a3.04 3.04 0 0 1 .5.7c.1.3.2.6.2.9 0 .2 0 .4-.1.6s-.1.4-.2.5c-.1.2-.2.3-.4.5-.1.1-.3.3-.5.4l1.2 2.3s.1.1.1.2.1.1.1.2v.1h-1.8l-.1-.1-1.2-2.2h-.8v2.1c0 .1-.1.2-.2.2h-1.6s-.1-.1-.1-.2V3zm3.8 2.1c0-.1 0-.2-.1-.3 0-.1-.1-.2-.1-.3l-.2-.2c-.1-.1-.2-.1-.3-.1h-1.2V6h1.2c.1 0 .2 0 .3-.1s.2-.1.2-.2c.1-.1.1-.2.1-.3s.1-.2.1-.3zm2.6 1.2c0-.3 0-.7.1-1s.2-.6.4-.9.3-.5.6-.7c.2-.2.5-.4.7-.6.3-.2.6-.3.9-.4s.6-.1 1-.1c.3 0 .7 0 1 .1s.6.2.9.4.5.3.7.6c.2.2.4.5.6.7.2.3.3.6.4.9s.1.6.1 1 0 .7-.1 1-.2.6-.4.9-.3.5-.6.7c-.2.2-.5.4-.7.6-.3.2-.6.3-.9.4s-.6.1-1 .1c-.3 0-.7 0-1-.1s-.6-.2-.9-.4-.5-.3-.7-.6c-.2-.2-.4-.5-.6-.7s-.3-.6-.4-.9-.1-.6-.1-1zm1.8 0c0 .3 0 .5.1.7s.2.4.4.6.4.4.6.5.5.1.7.1c.3 0 .5 0 .7-.1s.4-.3.6-.4c.2-.2.3-.4.4-.6s.1-.5.1-.7c0-.3 0-.5-.1-.7-.1-.3-.3-.5-.4-.7-.2-.2-.3-.3-.6-.4-.2-.1-.5-.1-.7-.1-.3 0-.5 0-.7.1s-.4.2-.6.4-.3.4-.4.6-.1.5-.1.7z"/><linearGradient id="A" gradientUnits="userSpaceOnUse" x1="1.913" y1="6.333" x2="15.452" y2="6.333"><stop offset="0" stop-color="#00c198"/><stop offset="1" stop-color="#00c198"/></linearGradient><path d="M15.5 6.6c0-1.4-.5-2.7-1.4-3.8-.8-.9-1.9-1.6-3-2-1-.3-2.2-.3-3.2 0-.3.2-.5.3-.6.3-.2.1-.4.2-.5.2-.4.1-.9 0-1.3-.2-.3-.2-.4-.4-.8-.5-.3 0-.6.1-.7.4-.3.7.6 1.2 1.1 1.4-.2 0-.3.1-.5.1H4c-.2 0-.4 0-.6-.1-.2 0-.4-.1-.5-.1-.4-.2-.9.1-1 .4 0 .2 0 .4.1.6.1.2.3.3.5.4.6.2 1.1.3 1.7.3-.9 1.9-.7 4.3.6 6 .6.8 1.4 1.4 2.4 1.7.5.2 1 .3 1.5.3.3 0 .6.1.9-.1.2-.1.3-.4.2-.6-.1-.2-.3-.3-.5-.3-.3 0-.6-.1-1-.2s-.8-.3-1.2-.5c-.7-.5-1.3-1.2-1.6-2-.3-.9-.3-1.9 0-2.9.4-1.1 1.3-2 2.3-2.3.9-.3 1.8-.3 2.7 0 1.1.5 2 1.5 2.3 2.7.1.3.1.6.1.9.8-.1 1.7-.1 2.6-.1z" fill="url(#A)"/><circle class="A" cx="9.7" cy="6.3" r="1"/><linearGradient id="B" gradientUnits="userSpaceOnUse" x1="12.445" y1="8.472" x2="15.455" y2="8.472"><stop offset="0" stop-color="#ffac32"/><stop offset="1" stop-color="#ffa532"/></linearGradient><path d="M15.5 6.6c-.1 0-.1 0 0 0h-2.6c0 .2 0 .3-.1.5 0 .2-.1.5-.2.7-.1.3-.2.7-.1 1 .2.6.7 1.5 1.9 1.5.7-1.1 1.1-2.4 1.1-3.7z" fill="url(#B)"/><path class="A" d="M46.7 2.7h-1.2c-.1 0-.2-.1-.2-.2V1.3c0-.1.1-.2.2-.2h1.2c.1 0 .2.1.2.2v1.2c0 .1-.1.2-.2.2zm-1.2-1.5c-.1 0-.1.1-.1.1v1.2c0 .1.1.1.1.1h1.2c.1 0 .1-.1.1-.1V1.3c0-.1-.1-.1-.1-.1h-1.2zm.3.4h.2v.7h-.4v-.2h.2v-.5zm.5.5v-.5h.2v.6h.2v.2h-.4v-.3"/></svg>